<svg id="图层_1" data-name="图层 1" xmlns="http://www.w3.org/2000/svg" xmlns:xlink="http://www.w3.org/1999/xlink" viewBox="0 0 121 65"><defs><style>.cls-1,.cls-8{fill:#fff;}.cls-1{stroke:#ececec;}.cls-1,.cls-7,.cls-9{stroke-miterlimit:10;}.cls-2{fill:url(#未命名的渐变);}.cls-3{fill:#fdfdfd;}.cls-4{fill:#f9fafb;}.cls-5{fill:#070237;}.cls-6{fill:#d5a24e;}.cls-7,.cls-9{stroke:#fff;stroke-width:0.5px;}.cls-7{fill:url(#未命名的渐变_2);}.cls-9{fill:#2674ca;}</style><linearGradient id="未命名的渐变" x1="33.43" y1="44.23" x2="43.83" y2="26.23" gradientTransform="matrix(1, 0, 0, -1, -5.61, 61.32)" gradientUnits="userSpaceOnUse"><stop offset="0" stop-color="#00eba9"/><stop offset="1" stop-color="#02c18c"/></linearGradient><linearGradient id="未命名的渐变_2" x1="47.33" y1="757.64" x2="47.33" y2="783.55" gradientTransform="translate(0 -727)" gradientUnits="userSpaceOnUse"><stop offset="0" stop-color="#f9a606"/><stop offset="1" stop-color="#fbcc5f"/></linearGradient></defs><title>img-pool31</title><circle class="cls-1" cx="32.5" cy="32.5" r="32"/><circle class="cls-2" cx="33.01" cy="26.07" r="10.42"/><path class="cls-3" d="M43.73,30.28a10.3,10.3,0,0,0-2.84-.66c-.95-.09-.95-.09-.85-1,0-.28.09-.38.38-.38h2.65a.25.25,0,0,0,.28-.28V26.39c0-.28-.09-.38-.38-.38H34.45c-.28,0-.38.09-.38.38v1.52c0,.28.09.38.38.28h2.08c.95,0,.95,0,.95.95,0,.28-.09.38-.38.38a10.39,10.39,0,0,0-3.41.66c-.38.19-.95.28-.85.85s.47.66.85.76a10.88,10.88,0,0,0,3.41.66c.28,0,.38.09.38.38v3.79c0,.38.09.38.38.38h1.8c.28,0,.38-.09.38-.38V32.74c0-.28.09-.38.38-.38a10.88,10.88,0,0,0,3.41-.66c.38-.19.85-.28.85-.76S44.11,30.47,43.73,30.28Zm.09,1a5,5,0,0,1-2,.38c-1,.09-2.08.19-3.13.19a25.57,25.57,0,0,1-4.64-.38c-.19-.09-.47-.09-.66-.19s-.19-.19,0-.28a3.5,3.5,0,0,1,1-.47A12.85,12.85,0,0,1,37.2,30c.28,0,.28.09.28.28v1.14a.25.25,0,0,0,.28.28,16.05,16.05,0,0,1,2.08.09c.28,0,.28-.09.28-.28V30.37c0-.19,0-.28.19-.28a9.21,9.21,0,0,1,3.5.95h.09c.09.09.28.09.28.28A.29.29,0,0,0,43.83,31.32Z" transform="translate(-5.61 -4.68)"/><circle class="cls-4" cx="41.72" cy="39.33" r="10.42"/><circle class="cls-1" cx="88.5" cy="32.5" r="32"/><g id="_编组_" data-name="&lt;编组&gt;"><g id="_编组_2" data-name="&lt;编组&gt;"><g id="_编组_3" data-name="&lt;编组&gt;"><path class="cls-5" d="M92.31,49.78h-5.7V31.38h2.2v16.2h3.6a10.34,10.34,0,0,0,7.5-2.9,10.49,10.49,0,0,0,2.9-7.7,9.56,9.56,0,0,0-2.9-7.3,10.3,10.3,0,0,0-7.3-2.7h-5.9v-2.2h5.9a12.49,12.49,0,0,1,8.8,3.3,10.54,10.54,0,0,1,2.7,3.9,13.48,13.48,0,0,1,.9,5,12.52,12.52,0,0,1-3.5,9.2A12.67,12.67,0,0,1,92.31,49.78Z" transform="translate(-5.61 -4.68)"/></g></g><g id="_编组_4" data-name="&lt;编组&gt;"><path class="cls-6" d="M89.91,46.08h0a12.06,12.06,0,0,0,7.9-2.5,8.31,8.31,0,0,0,3.1-6.8,8,8,0,0,0-3.1-6.5,12,12,0,0,0-7.7-2.3h-6.8V46h2.1V30.18h4.8a12.13,12.13,0,0,1,3.4.5,8.45,8.45,0,0,1,2.7,1.3,6,6,0,0,1,1.8,2.1,6.09,6.09,0,0,1,.6,2.8,6.45,6.45,0,0,1-2.4,5.2,8.92,8.92,0,0,1-2.7,1.5,12.3,12.3,0,0,1-3.5.5h-.2v2Z" transform="translate(-5.61 -4.68)"/></g></g><path class="cls-7" d="M47.33,54.33A10.42,10.42,0,1,0,36.91,43.92,10.39,10.39,0,0,0,47.33,54.33Z" transform="translate(-5.61 -4.68)"/><path class="cls-8" d="M53.3,42.31H52.07a5,5,0,0,0-4.92-3.22h-4v3.22H41.74v1.14h1.42v1.23H41.74v1.14h1.42v3.13h4a5.2,5.2,0,0,0,4.92-3.13H53.3V44.67h-.95V44h0v-.57h.95V42.31Zm-9-2.18h2.84a3.79,3.79,0,0,1,3.69,2.18H44.3Zm2.84,7.77H44.3V45.81h6.54A4.07,4.07,0,0,1,47.14,47.89ZM51.22,44v.57H44.4V43.35h6.91a1.85,1.85,0,0,0-.09.66Z" transform="translate(-5.61 -4.68)"/><circle class="cls-9" cx="24.58" cy="39.33" r="10.42"/><path class="cls-8" d="M22.42,44.3a.45.45,0,0,1-.47-.47,8.19,8.19,0,0,1,5.3-7.67.45.45,0,1,1,.28.85,7.27,7.27,0,0,0-4.74,6.82A.43.43,0,0,1,22.42,44.3Z" transform="translate(-5.61 -4.68)"/><path class="cls-8" d="M38,44.3a.45.45,0,0,1-.47-.47A7.22,7.22,0,0,0,33,37.1a.42.42,0,1,1,.38-.76,8.19,8.19,0,0,1,4.92,7.58C38.43,44.11,38.24,44.3,38,44.3Z" transform="translate(-5.61 -4.68)"/><path class="cls-8" d="M22.42,44.3a.45.45,0,0,1-.47-.47,8.19,8.19,0,0,1,5.3-7.67.45.45,0,1,1,.28.85,7.27,7.27,0,0,0-4.74,6.82A.43.43,0,0,1,22.42,44.3Z" transform="translate(-5.61 -4.68)"/><path class="cls-8" d="M38,44.3a.45.45,0,0,1-.47-.47A7.22,7.22,0,0,0,33,37.1a.42.42,0,1,1,.38-.76,8.19,8.19,0,0,1,4.92,7.58C38.43,44.11,38.24,44.3,38,44.3Z" transform="translate(-5.61 -4.68)"/><path class="cls-8" d="M27.35,51.78h-.19a8.33,8.33,0,0,1-5.3-7.67.47.47,0,0,1,.95,0,7.27,7.27,0,0,0,4.74,6.82c.19.09.38.38.28.57A.52.52,0,0,1,27.35,51.78Z" transform="translate(-5.61 -4.68)"/><path class="cls-8" d="M33.22,51.68c-.19,0-.38-.09-.38-.28a.46.46,0,0,1,.19-.57,7.37,7.37,0,0,0,4.45-6.72.47.47,0,1,1,.95,0,8.34,8.34,0,0,1-4.92,7.58Z" transform="translate(-5.61 -4.68)"/><path class="cls-8" d="M32,46.47a1.52,1.52,0,0,0-.47-1,3.29,3.29,0,0,0-1.42-.76A4.8,4.8,0,0,1,28,43.54a3,3,0,0,1,0-3.79,2.93,2.93,0,0,1,1.8-.85V37.38h1V38.9a2.6,2.6,0,0,1,1.8.95,3.64,3.64,0,0,1,.66,2.08H32a2.33,2.33,0,0,0-.47-1.42,1.41,1.41,0,0,0-1.23-.57,1.61,1.61,0,0,0-1.23.38,3.51,3.51,0,0,0-.38,1.33,1.18,1.18,0,0,0,.38,1,3.19,3.19,0,0,0,1.52.76,4.8,4.8,0,0,1,2.08,1.14,2.36,2.36,0,0,1,.66,1.8,2.58,2.58,0,0,1-.66,1.89,3.22,3.22,0,0,1-2,.85v1.33h-1V49.13a3.2,3.2,0,0,1-1.89-.85A3,3,0,0,1,27,46.09H28.3a1.86,1.86,0,0,0,.57,1.52,2.05,2.05,0,0,0,1.33.47,2.28,2.28,0,0,0,1.42-.38A1.61,1.61,0,0,0,32,46.47Z" transform="translate(-5.61 -4.68)"/></svg>