<svg id="图层_1" data-name="图层 1" xmlns="http://www.w3.org/2000/svg" xmlns:xlink="http://www.w3.org/1999/xlink" viewBox="0 0 65 65"><defs><style>.cls-1,.cls-3{fill:#fff;}.cls-1{stroke:#ececec;}.cls-1,.cls-2,.cls-4,.cls-5,.cls-7{stroke-miterlimit:10;}.cls-2,.cls-4,.cls-5,.cls-7{stroke:#fff;stroke-width:0.75px;}.cls-2{fill:url(#未命名的渐变_2);}.cls-4{fill:#2674ca;}.cls-5{fill:url(#未命名的渐变);}.cls-6{fill:#fdfdfd;}.cls-7{fill:url(#未命名的渐变_4);}</style><linearGradient id="未命名的渐变_2" x1="57.68" y1="-678.49" x2="57.68" y2="-702.95" gradientTransform="matrix(1, 0, 0, -1, -5.61, -665.68)" gradientUnits="userSpaceOnUse"><stop offset="0" stop-color="#f9a606"/><stop offset="1" stop-color="#fbcc5f"/></linearGradient><linearGradient id="未命名的渐变" x1="52.78" y1="972.01" x2="62.6" y2="989" gradientTransform="translate(-33.61 -939.75)" gradientUnits="userSpaceOnUse"><stop offset="0" stop-color="#00eba9"/><stop offset="1" stop-color="#02c18c"/></linearGradient><linearGradient id="未命名的渐变_4" x1="64.17" y1="32.45" x2="73.69" y2="15.95" gradientTransform="matrix(1, 0, 0, -1, -28, 64.93)" gradientUnits="userSpaceOnUse"><stop offset="0" stop-color="#343068"/><stop offset="1" stop-color="#23204f"/></linearGradient></defs><title>333</title><circle class="cls-1" cx="32.5" cy="32.5" r="32"/><path class="cls-2" d="M52.07,35.17a9.84,9.84,0,1,0-9.84-9.84h0A9.81,9.81,0,0,0,52,35.17Z" transform="translate(-28 -1.07)"/><path class="cls-3" d="M57.7,23.83H56.54a4.72,4.72,0,0,0-4.64-3H48.12v3H46.79V24.9h1.34v1.16H46.79v1.08h1.34v3h3.78a4.91,4.91,0,0,0,4.64-3H57.7V26.05h-.9v-.63h0v-.54h.9Zm-8.5-2.06h2.68a3.58,3.58,0,0,1,3.48,2.06H49.21Zm2.68,7.34H49.21v-2h6.17a3.84,3.84,0,0,1-3.49,2Zm3.85-3.68V26H49.3V24.81h6.52a1.75,1.75,0,0,0-.08.62Z" transform="translate(-28 -1.07)"/><circle class="cls-4" cx="40.93" cy="24.27" r="9.84"/><path class="cls-3" d="M61.6,25.61a.42.42,0,0,1-.44-.41s0,0,0,0a7.73,7.73,0,0,1,5-7.24.42.42,0,0,1,.35.77l-.09,0a6.86,6.86,0,0,0-4.47,6.44A.41.41,0,0,1,61.6,25.61Z" transform="translate(-28 -1.07)"/><path class="cls-3" d="M76.31,25.61a.42.42,0,0,1-.44-.41s0,0,0,0a6.82,6.82,0,0,0-4.28-6.35.4.4,0,1,1,.36-.72,7.73,7.73,0,0,1,4.64,7.16C76.71,25.43,76.53,25.61,76.31,25.61Z" transform="translate(-28 -1.07)"/><path class="cls-3" d="M66.25,32.67h-.18a7.86,7.86,0,0,1-5-7.24.45.45,0,1,1,.9,0h0a6.86,6.86,0,0,0,4.47,6.44c.18.08.36.36.26.54A.49.49,0,0,1,66.25,32.67Z" transform="translate(-28 -1.07)"/><path class="cls-3" d="M71.79,32.58c-.18,0-.36-.08-.36-.26a.43.43,0,0,1,.18-.54,7,7,0,0,0,4.2-6.34.45.45,0,1,1,.9,0h0a7.87,7.87,0,0,1-4.64,7.16Z" transform="translate(-28 -1.07)"/><path class="cls-3" d="M70.64,27.66a1.43,1.43,0,0,0-.44-.94A3.11,3.11,0,0,0,68.86,26a4.53,4.53,0,0,1-2-1.1,2.83,2.83,0,0,1,0-3.58,2.77,2.77,0,0,1,1.7-.8V19.08h.94v1.43a2.45,2.45,0,0,1,1.7.9,3.44,3.44,0,0,1,.62,2H70.64A2.2,2.2,0,0,0,70.2,22,1.33,1.33,0,0,0,69,21.49a1.52,1.52,0,0,0-1.16.36,3.31,3.31,0,0,0-.36,1.26,1.11,1.11,0,0,0,.36.94,3,3,0,0,0,1.43.72,4.53,4.53,0,0,1,2,1.08,2.23,2.23,0,0,1,.62,1.7,2.44,2.44,0,0,1-.62,1.78,3,3,0,0,1-1.89.8v1.26h-.94V30.17a3,3,0,0,1-1.78-.8,2.83,2.83,0,0,1-.74-2.07h1.23a1.76,1.76,0,0,0,.54,1.43,1.94,1.94,0,0,0,1.26.44,2.15,2.15,0,0,0,1.34-.36A1.52,1.52,0,0,0,70.64,27.66Z" transform="translate(-28 -1.07)"/><circle class="cls-5" cx="24.07" cy="40.73" r="9.84"/><path class="cls-6" d="M56.89,41.36a9.72,9.72,0,0,0-2.68-.62c-.9-.08-.9-.08-.8-.94,0-.26.08-.36.36-.36h2.5a.24.24,0,0,0,.26-.26V37.69c0-.26-.08-.36-.36-.36h-8c-.26,0-.36.08-.36.36v1.43c0,.26.08.36.36.26h2c.9,0,.9,0,.9.9,0,.26-.08.36-.36.36a9.81,9.81,0,0,0-3.22.62c-.36.18-.9.26-.8.8s.44.62.8.72a10.27,10.27,0,0,0,3.22.62c.26,0,.36.08.36.36v3.58c0,.36.08.36.36.36H53c.26,0,.36-.08.36-.36V43.68c0-.26.08-.36.36-.36A10.27,10.27,0,0,0,57,42.7c.36-.18.8-.26.8-.72S57.25,41.54,56.89,41.36Zm.08.94a4.72,4.72,0,0,1-1.89.36c-.94.08-2,.18-3,.18a24.14,24.14,0,0,1-4.38-.36c-.18-.08-.44-.08-.62-.18s-.18-.18,0-.26a3.3,3.3,0,0,1,.94-.44,12.13,12.13,0,0,1,2.65-.5c.26,0,.26.08.26.26v1.08a.24.24,0,0,0,.2.26h.06a15.15,15.15,0,0,1,2,.08c.26,0,.26-.08.26-.26V41.45c0-.18,0-.26.18-.26a8.69,8.69,0,0,1,3.3.9h.08c.08.08.26.08.26.26a.27.27,0,0,0-.33,0Z" transform="translate(-28 -1.07)"/><circle class="cls-7" cx="40.93" cy="40.73" r="9.52"/><path class="cls-3" d="M69.71,36.54h-.36v2.39c.68,0,1.36,0,1.81,0l0,1.42s-1.4.08-2,.08-.27.25-.09.29a11,11,0,0,1,1.61.46c.35.17.58.31.69,1.15a1.75,1.75,0,0,1-1.92,2.1h-.09V47h.36a5.21,5.21,0,0,0,0-10.43Z" transform="translate(-28 -1.07)"/><path class="cls-3" d="M67,44.35l.06-1.44a18.46,18.46,0,0,0,2.18,0c.37-.05.17-.23.17-.23a9.56,9.56,0,0,1-1.72-.46c-.43-.23-.93-.68-.66-2.16.14-.76.93-1.06,1.81-1.1V36.54H65.57a1,1,0,0,0-1,1V46a1,1,0,0,0,1,1h3.29V44.43C67.58,44.4,67,44.35,67,44.35Z" transform="translate(-28 -1.07)"/></svg>