<?xml version="1.0" encoding="UTF-8"?>
<svg width="70px" height="70px" viewBox="0 0 70 70" version="1.1" xmlns="http://www.w3.org/2000/svg" xmlns:xlink="http://www.w3.org/1999/xlink">
    <title>img-1</title>
    <g id="页面-1" stroke="none" stroke-width="1" fill="none" fill-rule="evenodd">
        <g id="Select-Stake" transform="translate(-424.000000, -240.000000)" fill="#BA59FF">
            <g id="编组-4" transform="translate(251.000000, 210.000000)">
                <g id="img-1" transform="translate(173.000000, 30.000000)">
                    <circle id="椭圆形" opacity="0.1" cx="35" cy="35" r="35"></circle>
                    <g id="编组" transform="translate(21.000000, 21.000000)" fill-rule="nonzero">
                        <path d="M13.2632713,23.5774739 L23.5774882,14.7366924 L19.8938393,14.7366924 C16.0628445,14.9577119 13.0422524,12.6738433 13.2632713,8.842838 L13.2632713,4.42244722 C13.3369443,2.06490548 11.4951198,0.0757296015 9.13758453,0.00205641083 L4.42251395,0.00205641083 C2.06497866,-0.0716167798 0.0758082332,1.8438859 0.00213524435,4.20142768 L0.00213524435,8.842838 C-0.0715377445,11.2003797 1.7702867,13.1895556 4.12782202,13.2632288 L8.84289263,13.2632288 C12.6738875,13.0422092 14.9577498,15.3260778 14.7367309,19.1570832 L14.7367309,22.8407421 C14.9577498,25.640323 17.0942662,27.7768452 19.8938393,27.9978647 L23.5774882,27.9978647 C25.9350235,28.0715379 27.9241939,26.2297084 27.9978669,23.8721667 L27.9978669,19.1570832 C28.0715399,16.5048487 26.2297154,14.7366924 23.5774882,14.7366924 L13.2632713,23.5774739 Z" id="形状"></path>
                        <path d="M27.9980684,8.00064397 C28.0647137,10.1336338 26.3985835,11.9333441 24.265937,12 L20.6670959,12 C18.2678685,12 16.0019316,10.2669457 16.0019316,8.00064397 L16.0019316,4.00128793 C15.9352863,1.86829805 17.6014165,0.068587815 19.734063,0.00193187122 L23.9993561,0.00193187122 C26.1320027,-0.0647240726 27.9314232,1.60167428 27.9980684,3.73466418 L27.9980684,8.00064397 L27.9980684,8.00064397 Z" id="路径" fill-opacity="0.4"></path>
                        <path d="M11.9980681,23.9987596 C12.0647241,26.1317622 10.3983257,27.9314831 8.26533582,27.9981394 L3.99935606,27.9981394 C1.86636618,28.0647958 0.0666559438,26.3317312 0,24.1987286 L0,20.6659431 C0,18.2663152 1.73305429,16 3.99935606,16 L7.99871209,16 C10.3983257,16 11.9980681,18.3996279 11.9980681,20.6659431 L11.9980681,23.9987596 Z" id="路径" fill-opacity="0.4"></path>
                    </g>
                </g>
            </g>
        </g>
    </g>
</svg>