<?xml version="1.0" encoding="UTF-8"?>
<svg width="70px" height="70px" viewBox="0 0 70 70" version="1.1" xmlns="http://www.w3.org/2000/svg" xmlns:xlink="http://www.w3.org/1999/xlink">
    <title>img-2</title>
    <g id="页面-1" stroke="none" stroke-width="1" fill="none" fill-rule="evenodd">
        <g id="Select-Stake" transform="translate(-865.000000, -240.000000)">
            <g id="编组-4备份-2" transform="translate(692.000000, 210.000000)">
                <g id="img-2" transform="translate(173.000000, 30.000000)">
                    <circle id="椭圆形" fill="#BA59FF" opacity="0.1" cx="35" cy="35" r="35"></circle>
                    <g id="编组-8" transform="translate(20.000000, 24.000000)" fill-rule="nonzero">
                        <path d="M30.9943862,13 L30.9943862,19.0075 C30.9820313,20.663845 29.6364563,22 27.980893,22 L4.00787948,22 C2.35231611,22 1.00674118,20.663845 0.994386228,19.0075 L0.994386228,13 L7.42617034,13 L8.23576554,15.4525 C8.64197065,16.6736093 9.78302959,17.4981195 11.0693487,17.5 L21.0543562,17.5 C22.1951214,17.4963401 23.2375533,16.8531856 23.7530069,15.835 L25.1697985,13 L30.9943862,13 Z" id="路径" fill="#BA59FF"></path>
                        <path d="M1.99438623,10.4865269 L7.09136556,1.52694611 C7.59806997,0.621490895 8.53223345,0.0441315172 9.5619538,0 L22.4268187,0 C23.4966008,0.00499250671 24.4817929,0.587644521 25.0086947,1.52694611 L29.9943862,10.508982 L25.0754673,10.508982 C23.9534976,10.4957183 22.9235257,11.1331574 22.4268187,12.1482036 L21.0245929,15 L11.1199824,15 L10.3187106,12.5299401 C9.92258847,11.3069055 8.78960161,10.481375 7.51425904,10.4865269 L1.99438623,10.4865269 Z" id="路径" fill="#DEB2FF" opacity="0.4"></path>
                    </g>
                </g>
            </g>
        </g>
    </g>
</svg>