<svg id="图层_1" data-name="图层 1" xmlns="http://www.w3.org/2000/svg" xmlns:xlink="http://www.w3.org/1999/xlink" viewBox="0 0 121 65.06"><defs><style>.cls-1,.cls-5{fill:#fff;}.cls-1{stroke:#ececec;stroke-miterlimit:10;}.cls-2{fill:#070237;}.cls-3{fill:#d5a24e;}.cls-4{fill:url(#未命名的渐变_3);}</style><linearGradient id="未命名的渐变_3" x1="38.21" y1="-671.83" x2="38.21" y2="-723.51" gradientTransform="matrix(1, 0, 0, -1, -5.61, -665.68)" gradientUnits="userSpaceOnUse"><stop offset="0" stop-color="#f9a606"/><stop offset="1" stop-color="#fbcc5f"/></linearGradient></defs><title>logo-dDAI</title><circle class="cls-1" cx="32.5" cy="32.56" r="32"/><circle class="cls-1" cx="88.5" cy="32.5" r="32"/><g id="_编组_" data-name=" 编组 "><g id="_编组_2" data-name=" 编组 2"><g id="_编组_3" data-name=" 编组 3"><path class="cls-2" d="M87.59,51.55H78.94V23.64h3.34V48.22h5.46a15.68,15.68,0,0,0,11.38-4.4,15.91,15.91,0,0,0,4.4-11.68,14.5,14.5,0,0,0-4.4-11.07A15.62,15.62,0,0,0,88,17H79.09V13.63H88a19,19,0,0,1,13.35,5,16,16,0,0,1,4.1,5.92,20.45,20.45,0,0,1,1.37,7.58,19,19,0,0,1-5.31,14A19.22,19.22,0,0,1,87.59,51.55Z"/></g></g><g id="_编组_4" data-name=" 编组 4"><path class="cls-3" d="M83.95,45.94h0a18.29,18.29,0,0,0,12-3.79,12.61,12.61,0,0,0,4.7-10.31A12.13,12.13,0,0,0,95.93,22a18.2,18.2,0,0,0-11.68-3.49H73.94V45.82h3.19v-24H84.4a18.4,18.4,0,0,1,5.16.76,12.82,12.82,0,0,1,4.1,2,9.1,9.1,0,0,1,2.73,3.19A9.24,9.24,0,0,1,97.3,32a9.78,9.78,0,0,1-3.64,7.89,13.53,13.53,0,0,1-4.1,2.28,18.66,18.66,0,0,1-5.31.76h-.3Z"/></g></g><path class="cls-4" d="M32.6,53.41A20.79,20.79,0,1,0,11.81,32.62v0A20.73,20.73,0,0,0,32.5,53.41Z"/><path class="cls-5" d="M44.51,29.43H42.05A10,10,0,0,0,32.24,23h-8v6.42H21.45V31.7h2.83v2.45H21.45v2.27h2.83v6.24h8a10.37,10.37,0,0,0,9.81-6.24h2.43V34.14h-1.9V32.8h0V31.66h1.9Zm-18-4.35h5.67a7.56,7.56,0,0,1,7.36,4.35h-13Zm5.67,15.5H26.55V36.41h13a8.12,8.12,0,0,1-7.38,4.15Zm8.14-7.78v1.14H26.75V31.5H40.54a3.69,3.69,0,0,0-.18,1.32Z"/></svg>