<svg id="图层_1" data-name="图层 1" xmlns="http://www.w3.org/2000/svg" viewBox="0 0 121 65.06"><defs><style>.cls-1,.cls-5{fill:#fff;}.cls-1{stroke:#ececec;stroke-miterlimit:10;}.cls-2{fill:#070237;}.cls-3{fill:#d5a24e;}.cls-4{fill:#2674ca;}</style></defs><title>logo-dUSDC</title><circle class="cls-1" cx="32.5" cy="32.56" r="32"/><circle class="cls-1" cx="88.5" cy="32.5" r="32"/><g id="_编组_" data-name=" 编组 "><g id="_编组_2" data-name=" 编组 2"><g id="_编组_3" data-name=" 编组 3"><path class="cls-2" d="M87.59,51.54H79V23.65h3.33V48.2h5.46a15.67,15.67,0,0,0,11.37-4.4,15.9,15.9,0,0,0,4.4-11.67,14.49,14.49,0,0,0-4.4-11.06A15.61,15.61,0,0,0,88,17H79.1V13.65H88a18.93,18.93,0,0,1,13.34,5,16,16,0,0,1,4.09,5.91,20.43,20.43,0,0,1,1.36,7.58,19,19,0,0,1-5.3,13.94A19.2,19.2,0,0,1,87.59,51.54Z"/></g></g><g id="_编组_4" data-name=" 编组 4"><path class="cls-3" d="M84,45.93h0a18.28,18.28,0,0,0,12-3.79,12.6,12.6,0,0,0,4.7-10.31A12.13,12.13,0,0,0,95.93,22,18.19,18.19,0,0,0,84.26,18.5H73.95V45.81h3.18v-24h7.28a18.38,18.38,0,0,1,5.15.76,12.81,12.81,0,0,1,4.09,2,9.09,9.09,0,0,1,2.73,3.18A9.23,9.23,0,0,1,97.29,32a9.78,9.78,0,0,1-3.64,7.88,13.52,13.52,0,0,1-4.09,2.27,18.64,18.64,0,0,1-5.3.76H84Z"/></g></g><circle class="cls-4" cx="32.6" cy="32.62" r="20.79"/><path class="cls-5" d="M17.1,33.2a.9.9,0,0,1-.94-.86s0-.05,0-.08A16.34,16.34,0,0,1,26.73,17a.9.9,0,1,1,.74,1.64l-.18.06a14.5,14.5,0,0,0-9.46,13.61A.86.86,0,0,1,17.1,33.2Z"/><path class="cls-5" d="M48.18,33.2a.9.9,0,0,1-.94-.86s0-.05,0-.08a14.4,14.4,0,0,0-9-13.43A.85.85,0,0,1,39,17.32a16.34,16.34,0,0,1,9.81,15.12C49,32.82,48.66,33.2,48.18,33.2Z"/><path class="cls-5" d="M26.93,48.12h-.38A16.62,16.62,0,0,1,16,32.82a.95.95,0,1,1,1.9,0h0a14.5,14.5,0,0,0,9.46,13.61c.38.18.76.76.56,1.14A1,1,0,0,1,26.93,48.12Z"/><path class="cls-5" d="M38.64,47.92c-.38,0-.76-.18-.76-.56a.92.92,0,0,1,.38-1.14,14.7,14.7,0,0,0,8.88-13.41.95.95,0,1,1,1.9,0h0a16.64,16.64,0,0,1-9.81,15.12Z"/><path class="cls-5" d="M36.21,37.53a3,3,0,0,0-.94-2A6.56,6.56,0,0,0,32.44,34a9.58,9.58,0,0,1-4.21-2.33,6,6,0,0,1,0-7.56,5.85,5.85,0,0,1,3.59-1.7v-3h2v3a5.19,5.19,0,0,1,3.59,1.9,7.26,7.26,0,0,1,1.32,4.15H36.21a4.65,4.65,0,0,0-.94-2.83,2.81,2.81,0,0,0-2.45-1.14,3.21,3.21,0,0,0-2.45.76,7,7,0,0,0-.76,2.65,2.35,2.35,0,0,0,.76,2,6.36,6.36,0,0,0,3,1.52,9.58,9.58,0,0,1,4.15,2.27,4.71,4.71,0,0,1,1.32,3.59,5.15,5.15,0,0,1-1.32,3.77,6.42,6.42,0,0,1-4,1.7v2.65h-2V42.83a6.38,6.38,0,0,1-3.77-1.7,6,6,0,0,1-1.56-4.37h2.59a3.71,3.71,0,0,0,1.14,3,4.09,4.09,0,0,0,2.65.94A4.55,4.55,0,0,0,35.45,40,3.21,3.21,0,0,0,36.21,37.53Z"/></svg>