<svg id="图层_1" data-name="图层 1" xmlns="http://www.w3.org/2000/svg" xmlns:xlink="http://www.w3.org/1999/xlink" viewBox="0 0 121 65.06"><defs><style>.cls-1{fill:#fff;stroke:#ececec;stroke-miterlimit:10;}.cls-2{fill:#070237;}.cls-3{fill:#d5a24e;}.cls-4{fill:url(#未命名的渐变);}.cls-5{fill:#fdfdfd;}</style><linearGradient id="未命名的渐变" x1="27.81" y1="1287.41" x2="48.46" y2="1323.15" gradientTransform="translate(-5.61 -1272.68)" gradientUnits="userSpaceOnUse"><stop offset="0" stop-color="#00eba9"/><stop offset="1" stop-color="#02c18c"/></linearGradient></defs><title>logo-dUSDT</title><circle class="cls-1" cx="32.5" cy="32.56" r="32"/><circle class="cls-1" cx="88.5" cy="32.5" r="32"/><g id="_编组_" data-name=" 编组 "><g id="_编组_2" data-name=" 编组 2"><g id="_编组_3" data-name=" 编组 3"><path class="cls-2" d="M87.59,51.55H78.94V23.65h3.34V48.21h5.46a15.68,15.68,0,0,0,11.37-4.4,15.91,15.91,0,0,0,4.4-11.68,14.5,14.5,0,0,0-4.4-11.07A15.62,15.62,0,0,0,88,17H79.1V13.64H88a18.94,18.94,0,0,1,13.35,5,16,16,0,0,1,4.09,5.91,20.44,20.44,0,0,1,1.36,7.58,19,19,0,0,1-5.31,14A19.21,19.21,0,0,1,87.59,51.55Z"/></g></g><g id="_编组_4" data-name=" 编组 4"><path class="cls-3" d="M83.95,45.94h0a18.29,18.29,0,0,0,12-3.79,12.6,12.6,0,0,0,4.7-10.31A12.13,12.13,0,0,0,95.93,22a18.2,18.2,0,0,0-11.68-3.49H73.94V45.82h3.18v-24H84.4a18.4,18.4,0,0,1,5.16.76,12.81,12.81,0,0,1,4.09,2,9.1,9.1,0,0,1,2.73,3.18A9.24,9.24,0,0,1,97.29,32a9.78,9.78,0,0,1-3.64,7.89,13.53,13.53,0,0,1-4.09,2.27,18.65,18.65,0,0,1-5.31.76h-.3Z"/></g></g><circle class="cls-4" cx="32.5" cy="32.56" r="20.69"/><path class="cls-5" d="M42.65,31.63A20.45,20.45,0,0,0,37,30.32c-1.89-.18-1.89-.18-1.69-2,0-.56.18-.75.75-.75h5.26a.5.5,0,0,0,.56-.56V23.91c0-.56-.18-.75-.75-.75H24.22c-.56,0-.75.18-.75.75v3c0,.56.18.75.75.56h4.13c1.89,0,1.89,0,1.89,1.89,0,.56-.18.75-.75.75a20.63,20.63,0,0,0-6.77,1.31c-.75.38-1.89.56-1.69,1.69s.93,1.31,1.69,1.51a21.6,21.6,0,0,0,6.77,1.31c.56,0,.75.18.75.75v7.52c0,.75.18.75.75.75h3.57c.56,0,.75-.18.75-.75v-7.7c0-.56.18-.75.75-.75a21.6,21.6,0,0,0,6.77-1.31c.75-.38,1.69-.56,1.69-1.51S43.4,32,42.65,31.63Zm.18,2a9.93,9.93,0,0,1-4,.75c-2,.18-4.13.38-6.21.38A50.77,50.77,0,0,1,23.43,34c-.38-.18-.93-.18-1.31-.38s-.38-.38,0-.56a7,7,0,0,1,2-.93,25.51,25.51,0,0,1,5.58-1.05c.56,0,.56.18.56.56v2.26a.5.5,0,0,0,.43.56h.13a31.87,31.87,0,0,1,4.13.18c.56,0,.56-.18.56-.56V31.81c0-.38,0-.56.38-.56a18.29,18.29,0,0,1,6.95,1.89H43c.18.18.56.18.56.56a.58.58,0,0,0-.69,0Z"/></svg>